<?xml version="1.0" encoding="utf-8"?>
<!-- Generator: Adobe Illustrator 23.0.4, SVG Export Plug-In . SVG Version: 6.00 Build 0)  -->
<svg version="1.1" id="图层_1" xmlns="http://www.w3.org/2000/svg" xmlns:xlink="http://www.w3.org/1999/xlink" x="0px" y="0px"
	 viewBox="0 0 172 42" style="enable-background:new 0 0 172 42;" xml:space="preserve">
<style type="text/css">
	.st0{filter:url(#Adobe_OpacityMaskFilter);}
	.st1{fill-rule:evenodd;clip-rule:evenodd;fill:#FFFFFF;}
	.st2{mask:url(#mask-2_1_);fill-rule:evenodd;clip-rule:evenodd;fill:#FFFFFF;}
	.st3{filter:url(#Adobe_OpacityMaskFilter_1_);}
	.st4{mask:url(#mask-4_1_);fill-rule:evenodd;clip-rule:evenodd;fill:#FFFFFF;}
	.st5{filter:url(#Adobe_OpacityMaskFilter_2_);}
	.st6{mask:url(#mask-4_2_);fill-rule:evenodd;clip-rule:evenodd;fill:#FFFFFF;}
	.st7{filter:url(#Adobe_OpacityMaskFilter_3_);}
	.st8{mask:url(#mask-4_3_);fill-rule:evenodd;clip-rule:evenodd;fill:#FFFFFF;}
	.st9{filter:url(#Adobe_OpacityMaskFilter_4_);}
	.st10{mask:url(#mask-4_4_);fill-rule:evenodd;clip-rule:evenodd;fill:#FFFFFF;}
	.st11{filter:url(#Adobe_OpacityMaskFilter_5_);}
	.st12{mask:url(#mask-4_5_);fill-rule:evenodd;clip-rule:evenodd;fill:#FFFFFF;}
</style>
<title>Group</title>
<desc>Created with Sketch.</desc>
<g id="Symbols">
	<g id="main-menu" transform="translate(-17.000000, -9.000000)">
		<g id="top-menu-signed-out">
			<g id="Group" transform="translate(17.000000, 9.000000)">
				<g id="Group-3">
					<g id="Clip-2">
					</g>
					<defs>
						<filter id="Adobe_OpacityMaskFilter" filterUnits="userSpaceOnUse" x="0" y="0.4" width="31.5" height="40.9">
							<feColorMatrix  type="matrix" values="1 0 0 0 0  0 1 0 0 0  0 0 1 0 0  0 0 0 1 0"/>
						</filter>
					</defs>
					<mask maskUnits="userSpaceOnUse" x="0" y="0.4" width="31.5" height="40.9" id="mask-2_1_">
						<g class="st0">
							<polygon id="path-1_1_" class="st1" points="0,0.4 31.5,0.4 31.5,41.4 0,41.4 							"/>
						</g>
					</mask>
					<path id="Fill-1" class="st2" d="M19.3,27.3C16,27.7,13,24.8,13,20.9c0-3.9,3-6.8,6.4-6.4c3,0.3,5.2,3.2,5.2,6.4
						C24.6,24.1,22.3,26.9,19.3,27.3z M29.3,28.8c-2.4,0.3-3.6-1.6-2.8-3.3l0,0.1c0.6-1.4,1-3,1-4.6c0-1.6-0.4-3.2-1-4.6l0.1,0.1
						c-0.6-1.4,0.4-3.7,2.8-3.4v0c1.3,0.2,2.3-1,2.3-2.6c0-1.6-1-3.2-2.3-3.6c-1.3-0.3-2.5,0.8-2.5,2.6v0h0c0,3.1-1.7,4.4-3.1,3.2
						l0,0.1c-1.2-1-2.7-1.8-4.3-2c-1.7-0.3-3.5,0-5,0.7C12.8,11.9,9.8,10,9.8,6h0c0-2.3-2-4.7-4.6-5.4C2.4-0.1,0,1.4,0,4
						c0,2.6,2.4,5.1,5.2,5.5c4.2,0.6,6.1,3.2,5.3,5.1c-1.2,1.7-1.9,3.8-1.9,6.2c0,2.3,0.6,4.3,1.7,6c0.7,1.7-0.9,4.8-5.2,5.4h0
						C2.4,32.6,0,35.1,0,37.8c0,2.6,2.4,4.1,5.2,3.4c2.6-0.7,4.6-3.1,4.6-5.4c0,0,0,0,0,0c0-3.9,2.5-6.1,4.4-5.4
						c1.6,0.8,3.4,1.1,5.2,0.8c1.6-0.3,3.1-1,4.3-2l0,0.1c1.1-0.9,3.1,0.1,3.1,3.2v0c0,1.8,1.1,2.9,2.5,2.6c1.3-0.3,2.3-1.9,2.3-3.6
						S30.5,28.6,29.3,28.8z"/>
				</g>
				<path id="Fill-4" class="st1" d="M30,14.7h3.4v1.5l0.2-0.2l0.2-0.3c0.8-0.8,1.7-1.2,2.7-1.3H37v3.1c-0.2,0-0.3-0.1-0.5-0.1
					c-1.9-0.2-2.9,0.8-2.9,2.7v7.1H30V14.7"/>
				<path id="Fill-5" class="st1" d="M42.4,25.3c0.3,0,0.6,0,0.9,0c0.6-0.1,0.9-0.2,1.3-0.4c0.9-0.6,1-1.7,0.3-2.4
					c-0.3-0.3-0.9-0.6-1.6-0.7c-1.9-0.2-2.9,0.6-3,1.7C40.3,24.4,41,25.2,42.4,25.3 M41.1,19.6c0.6-0.1,1.1-0.1,1.7,0
					c1.2,0.1,1.9,0.4,2.6,0.9v-0.9c0-1.3-0.8-2.1-2.9-2.3c-0.8-0.1-2-0.1-3.4,0.1c-0.2,0-0.4,0-0.6,0.1v-2.7
					c0.7-0.1,1.4-0.2,2.1-0.2c5.9-0.2,8.2,1.7,8.2,5.3v7.4h-3.5v-1.1c-0.1,0.1-0.3,0.2-0.4,0.3c-1,0.7-2,1-3.4,1
					c-3,0-4.8-1.9-4.7-3.9C36.8,21.6,38.3,20,41.1,19.6"/>
				<path id="Fill-6" class="st1" d="M51.5,14.7h3.4v1.4c0.1-0.1,0.2-0.2,0.3-0.3c1-0.9,2-1.3,3.2-1.3c3.1-0.1,5,2,5,5.6v7.2h-3.6
					v-6.8c0-1.8-0.6-2.8-1.9-3.1C56.1,17,55,17.9,55,19.9v7.4h-3.6V14.7"/>
				<path id="Fill-7" class="st1" d="M69.1,21.6c0.2,2.1,1.8,3.3,3.7,3c1.3-0.2,2.3-1.3,2.5-2.9c0-0.4,0-0.8,0-1.1
					c-0.2-2-1.4-3-3.1-3c-1.7,0-2.8,1.1-3.1,3c0,0.2,0,0.4,0,0.6C69,21.2,69.1,21.4,69.1,21.6 M65.5,19.9c0.3-1.7,1.2-3.2,2.5-4.1
					c2.5-1.7,5.7-1.4,7.2,0.4v-1.5h3.4v12.5c0,3.5-2.4,5.7-7.2,5.8c-0.7,0-1.5,0-2.2-0.2v-3.1c0.7,0.2,1.4,0.3,2,0.3
					c2.6,0,3.7-1.1,3.7-3v-0.9c-1.3,1.5-3.7,2-6.2,0.9c-1.9-0.8-3.2-2.6-3.4-4.8c0-0.4-0.1-0.8,0-1.2C65.4,20.7,65.5,20.3,65.5,19.9
					"/>
				<path id="Fill-8" class="st1" d="M90.4,19.7l0-0.2l0-0.2C90.2,18,89.1,17,87.6,17c-1.4,0-2.6,0.8-3.1,2.1
					c-0.1,0.2-0.1,0.4-0.2,0.6L90.4,19.7z M84.9,14.7c0.8-0.3,1.7-0.4,2.5-0.3c3.6,0.3,6.1,2.9,6.1,6.6c0,0.4,0,0.7,0,1l-9.4-0.1
					c-0.1,0.8,0.5,1.8,1.5,2.3c0.7,0.4,1.6,0.5,2.5,0.2c0.5-0.1,1-0.5,1.6-1c0.1-0.1,0.1-0.1,0.2-0.2l2.7,1.9
					c-0.1,0.1-0.2,0.2-0.3,0.3c-1.9,1.9-4.3,2.6-6.8,1.9c-3.8-1.1-5.7-4.6-4.8-7.9C81.1,17.2,82.7,15.4,84.9,14.7z"/>
				<path id="Fill-9" class="st1" d="M94.3,14.7h1.4v-3.2l1.8-0.8v4h3.4l-0.3,1.3h-3v6.6l0,0.2l0,0.9c0,1.5,0.9,2.3,2.8,2.2
					c0.1,0,0.3,0,0.4,0v1.4c-0.1,0-0.3,0-0.4,0c-3.6,0.3-4.7-0.9-4.7-4.7v-6.7h-1.6L94.3,14.7"/>
				<path id="Fill-10" class="st1" d="M102.5,9.8l1.8-0.4v7.3c0.2-0.3,0.5-0.6,0.8-0.9c0.7-0.7,1.6-1.1,2.5-1.3
					c3.7-0.8,6.4,1.6,6.4,5.4v7.3h-1.8v-6.7c0-3.1-1.4-4.6-3.9-4.6c-2.5,0-4,1.6-4,4.3v7h-1.8V9.8"/>
				<path id="Fill-11" class="st1" d="M127.1,20.1l0-0.2l0-0.2c0-0.2-0.1-0.4-0.1-0.6c-0.5-1.8-2.2-3.1-4.2-3.1
					c-2.1,0-3.8,1.2-4.5,3.2c-0.1,0.3-0.2,0.6-0.2,1L127.1,20.1z M116.5,18.4c0.9-2.1,2.7-3.5,5-3.9c3.9-0.6,7.3,2.2,7.4,6.1
					c0,0.3,0,0.5,0,0.8l-11,0c0,0.1,0,0.2,0,0.3c0.1,1.6,1,3,2.5,3.7c1.9,1,4.2,0.6,5.9-1c0.1-0.1,0.2-0.2,0.2-0.3l1.4,1
					c-0.4,0.5-0.8,0.9-1.3,1.2c-1.7,1.2-3.7,1.5-5.7,1c-3.7-1-5.6-4.4-4.8-7.7C116.2,19.2,116.3,18.8,116.5,18.4z"/>
				<path id="Fill-12" class="st1" d="M136.8,25.9c0.5,0.1,1.1,0.1,1.7,0c2.8-0.5,4.5-2.9,3.9-6c-0.2-1.1-0.7-2-1.4-2.7
					c-0.9-0.8-2-1.2-3.3-1.2c-1.3,0-2.5,0.4-3.3,1.2c-1,0.9-1.5,2.2-1.5,3.7C132.8,23.6,134.3,25.5,136.8,25.9 M138.8,14.4
					c3.5,0.5,5.6,3.1,5.6,6.6s-2.1,6.1-5.6,6.6c-4.6,0.7-8-2.3-8-6.6S134.2,13.7,138.8,14.4"/>
				<path id="Fill-13" class="st1" d="M146.8,14.7h1.8v1.8c0.1-0.1,0.1-0.2,0.2-0.3c0.9-1.2,2-1.8,3.5-1.8c0.2,0,0.3,0,0.5,0v1.7
					c-0.2,0-0.4,0-0.6,0c-1.1,0-2.1,0.3-2.7,1.1c-0.6,0.7-0.8,1.3-0.8,2.4v7.7h-1.8V14.7"/>
				<path id="Fill-14" class="st1" d="M154.3,14.7h1.8v6.9c0,2.6,0.9,3.9,3,4.3c0.6,0.1,1.1,0.1,1.7,0c2.1-0.4,3.1-1.6,3.1-3.9v-7.2
					h1.8v12c0,3.5-2.5,5.7-7.7,5.4c-0.3,0-0.6,0-0.9-0.1v-1.6c0.3,0,0.6,0.1,0.9,0.1c4,0.2,5.9-1.4,5.9-4.2v-1.1
					c-0.1,0.1-0.2,0.3-0.3,0.4c-1.1,1.2-2.4,1.8-4.1,1.8c-3,0-5-1.8-5.2-4.6c0-0.3,0-0.7,0-1.1V14.7"/>
				<path id="Fill-15" class="st1" d="M30,14.7h3.4v1.5l0.2-0.2l0.2-0.3c0.8-0.8,1.7-1.2,2.7-1.3H37v3.1c-0.2,0-0.3-0.1-0.5-0.1
					c-1.9-0.2-2.9,0.8-2.9,2.7v7.1H30V14.7"/>
				<path id="Fill-16" class="st1" d="M42.4,25.3c0.3,0,0.6,0,0.9,0c0.6-0.1,0.9-0.2,1.3-0.4c0.9-0.6,1-1.7,0.3-2.4
					c-0.3-0.3-0.9-0.6-1.6-0.7c-1.9-0.2-2.9,0.6-3,1.7C40.3,24.4,41,25.2,42.4,25.3 M41.1,19.6c0.6-0.1,1.1-0.1,1.7,0
					c1.2,0.1,1.9,0.4,2.6,0.9v-0.9c0-1.3-0.8-2.1-2.9-2.3c-0.8-0.1-2-0.1-3.4,0.1c-0.2,0-0.4,0-0.6,0.1v-2.7
					c0.7-0.1,1.4-0.2,2.1-0.2c5.9-0.2,8.2,1.7,8.2,5.3v7.4h-3.5v-1.1c-0.1,0.1-0.3,0.2-0.4,0.3c-1,0.7-2,1-3.4,1
					c-3,0-4.8-1.9-4.7-3.9C36.8,21.6,38.3,20,41.1,19.6"/>
				<path id="Fill-17" class="st1" d="M51.5,14.7h3.4v1.4c0.1-0.1,0.2-0.2,0.3-0.3c1-0.9,2-1.3,3.2-1.3c3.1-0.1,5,2,5,5.6v7.2h-3.6
					v-6.8c0-1.8-0.6-2.8-1.9-3.1C56.1,17,55,17.9,55,19.9v7.4h-3.6V14.7"/>
				<path id="Fill-18" class="st1" d="M69.1,21.6c0.2,2.1,1.8,3.3,3.7,3c1.3-0.2,2.3-1.3,2.5-2.9c0-0.4,0-0.8,0-1.1
					c-0.2-2-1.4-3-3.1-3c-1.7,0-2.8,1.1-3.1,3c0,0.2,0,0.4,0,0.6C69,21.2,69.1,21.4,69.1,21.6 M65.5,19.9c0.3-1.7,1.2-3.2,2.5-4.1
					c2.5-1.7,5.7-1.4,7.2,0.4v-1.5h3.4v12.5c0,3.5-2.4,5.7-7.2,5.8c-0.7,0-1.5,0-2.2-0.2v-3.1c0.7,0.2,1.4,0.3,2,0.3
					c2.6,0,3.7-1.1,3.7-3v-0.9c-1.3,1.5-3.7,2-6.2,0.9c-1.9-0.8-3.2-2.6-3.4-4.8c0-0.4-0.1-0.8,0-1.2C65.4,20.7,65.5,20.3,65.5,19.9
					"/>
				<path id="Fill-19" class="st1" d="M90.4,19.7l0-0.2l0-0.2C90.2,18,89.1,17,87.6,17c-1.4,0-2.6,0.8-3.1,2.1
					c-0.1,0.2-0.1,0.4-0.2,0.6L90.4,19.7z M84.9,14.7c0.8-0.3,1.7-0.4,2.5-0.3c3.6,0.3,6.1,2.9,6.1,6.6c0,0.4,0,0.7,0,1l-9.4-0.1
					c-0.1,0.8,0.5,1.8,1.5,2.3c0.7,0.4,1.6,0.5,2.5,0.2c0.5-0.1,1-0.5,1.6-1c0.1-0.1,0.1-0.1,0.2-0.2l2.7,1.9
					c-0.1,0.1-0.2,0.2-0.3,0.3c-1.9,1.9-4.3,2.6-6.8,1.9c-3.8-1.1-5.7-4.6-4.8-7.9C81.1,17.2,82.7,15.4,84.9,14.7z"/>
				<path id="Fill-20" class="st1" d="M94.3,14.7h1.4v-3.2l1.8-0.8v4h3.4l-0.3,1.3h-3v6.6l0,0.2l0,0.9c0,1.5,0.9,2.3,2.8,2.2
					c0.1,0,0.3,0,0.4,0v1.4c-0.1,0-0.3,0-0.4,0c-3.6,0.3-4.7-0.9-4.7-4.7v-6.7h-1.6L94.3,14.7"/>
				<path id="Fill-21" class="st1" d="M102.5,9.8l1.8-0.4v7.3c0.2-0.3,0.5-0.6,0.8-0.9c0.7-0.7,1.6-1.1,2.5-1.3
					c3.7-0.8,6.4,1.6,6.4,5.4v7.3h-1.8v-6.7c0-3.1-1.4-4.6-3.9-4.6c-2.5,0-4,1.6-4,4.3v7h-1.8V9.8"/>
				<path id="Fill-22" class="st1" d="M127.1,20.1l0-0.2l0-0.2c0-0.2-0.1-0.4-0.1-0.6c-0.5-1.8-2.2-3.1-4.2-3.1
					c-2.1,0-3.8,1.2-4.5,3.2c-0.1,0.3-0.2,0.6-0.2,1L127.1,20.1z M116.5,18.4c0.9-2.1,2.7-3.5,5-3.9c3.9-0.6,7.3,2.2,7.4,6.1
					c0,0.3,0,0.5,0,0.8l-11,0c0,0.1,0,0.2,0,0.3c0.1,1.6,1,3,2.5,3.7c1.9,1,4.2,0.6,5.9-1c0.1-0.1,0.2-0.2,0.2-0.3l1.4,1
					c-0.4,0.5-0.8,0.9-1.3,1.2c-1.7,1.2-3.7,1.5-5.7,1c-3.7-1-5.6-4.4-4.8-7.7C116.2,19.2,116.3,18.8,116.5,18.4z"/>
				<path id="Fill-23" class="st1" d="M136.8,25.9c0.5,0.1,1.1,0.1,1.7,0c2.8-0.5,4.5-2.9,3.9-6c-0.2-1.1-0.7-2-1.4-2.7
					c-0.9-0.8-2-1.2-3.3-1.2c-1.3,0-2.5,0.4-3.3,1.2c-1,0.9-1.5,2.2-1.5,3.7C132.8,23.6,134.3,25.5,136.8,25.9 M138.8,14.4
					c3.5,0.5,5.6,3.1,5.6,6.6s-2.1,6.1-5.6,6.6c-4.6,0.7-8-2.3-8-6.6S134.2,13.7,138.8,14.4"/>
				<path id="Fill-24" class="st1" d="M146.8,14.7h1.8v1.8c0.1-0.1,0.1-0.2,0.2-0.3c0.9-1.2,2-1.8,3.5-1.8c0.2,0,0.3,0,0.5,0v1.7
					c-0.2,0-0.4,0-0.6,0c-1.1,0-2.1,0.3-2.7,1.1c-0.6,0.7-0.8,1.3-0.8,2.4v7.7h-1.8V14.7"/>
				<path id="Fill-25" class="st1" d="M154.3,14.7h1.8v6.9c0,2.6,0.9,3.9,3,4.3c0.6,0.1,1.1,0.1,1.7,0c2.1-0.4,3.1-1.6,3.1-3.9v-7.2
					h1.8v12c0,3.5-2.5,5.7-7.7,5.4c-0.3,0-0.6,0-0.9-0.1v-1.6c0.3,0,0.6,0.1,0.9,0.1c4,0.2,5.9-1.4,5.9-4.2v-1.1
					c-0.1,0.1-0.2,0.3-0.3,0.4c-1.1,1.2-2.4,1.8-4.1,1.8c-3,0-5-1.8-5.2-4.6c0-0.3,0-0.7,0-1.1V14.7"/>
				<polyline id="Fill-26" class="st1" points="38.7,38.2 38.7,39 34.9,39 34.9,41.5 33.9,41.5 33.9,35.6 40,35.6 40,36.5 
					34.9,36.5 34.9,38.2 38.7,38.2 				"/>
				<polyline id="Fill-27" class="st1" points="40.4,36.8 40.4,35.2 33.5,35.2 33.5,41.9 35.2,41.9 35.2,39.4 39.1,39.4 39.1,37.8 
					35.2,37.8 35.2,36.8 40.4,36.8 				"/>
				<polygon id="Fill-28" class="st1" points="54.7,41.9 56.5,41.9 56.5,35.2 54.7,35.2 				"/>
				<g id="Group-35" transform="translate(70.705539, 35.000000)">
					<g id="Clip-30">
					</g>
					<defs>
						<filter id="Adobe_OpacityMaskFilter_1_" filterUnits="userSpaceOnUse" x="0.1" y="0.2" width="7.9" height="6.6">
							<feColorMatrix  type="matrix" values="1 0 0 0 0  0 1 0 0 0  0 0 1 0 0  0 0 0 1 0"/>
						</filter>
					</defs>
					<mask maskUnits="userSpaceOnUse" x="0.1" y="0.2" width="7.9" height="6.6" id="mask-4_1_">
						<g class="st3">
							<polygon id="path-3_1_" class="st1" points="0.1,0.1 94.9,0.1 94.9,7 0.1,7 							"/>
						</g>
					</mask>
					<polyline id="Fill-29" class="st4" points="0.1,1.8 3.1,1.8 3.1,6.9 4.8,6.9 4.8,1.8 7.9,1.8 7.9,0.2 0.1,0.2 0.1,1.8 					"/>
					<defs>
						<filter id="Adobe_OpacityMaskFilter_2_" filterUnits="userSpaceOnUse" x="22.1" y="0.2" width="7.7" height="6.8">
							<feColorMatrix  type="matrix" values="1 0 0 0 0  0 1 0 0 0  0 0 1 0 0  0 0 0 1 0"/>
						</filter>
					</defs>
					<mask maskUnits="userSpaceOnUse" x="22.1" y="0.2" width="7.7" height="6.8" id="mask-4_2_">
						<g class="st5">
							<polygon id="path-3_2_" class="st1" points="0.1,0.1 94.9,0.1 94.9,7 0.1,7 							"/>
						</g>
					</mask>
					<polyline id="Fill-31" class="st6" points="28.1,4.1 22.7,0.2 22.1,0.2 22.1,6.9 23.8,6.9 23.8,3 29.3,7 29.8,7 29.8,0.2 
						28.1,0.2 28.1,4.1 					"/>
					<defs>
						<filter id="Adobe_OpacityMaskFilter_3_" filterUnits="userSpaceOnUse" x="44.6" y="0.2" width="7" height="6.6">
							<feColorMatrix  type="matrix" values="1 0 0 0 0  0 1 0 0 0  0 0 1 0 0  0 0 0 1 0"/>
						</filter>
					</defs>
					<mask maskUnits="userSpaceOnUse" x="44.6" y="0.2" width="7" height="6.6" id="mask-4_3_">
						<g class="st7">
							<polygon id="path-3_3_" class="st1" points="0.1,0.1 94.9,0.1 94.9,7 0.1,7 							"/>
						</g>
					</mask>
					<polyline id="Fill-32" class="st8" points="46.3,4.2 49.9,4.2 49.9,2.7 46.3,2.7 46.3,1.8 51.3,1.8 51.3,0.2 44.6,0.2 
						44.6,6.9 51.6,6.9 51.6,5.3 46.3,5.3 46.3,4.2 					"/>
					<defs>
						<filter id="Adobe_OpacityMaskFilter_4_" filterUnits="userSpaceOnUse" x="65.2" y="0.1" width="8.1" height="6.8">
							<feColorMatrix  type="matrix" values="1 0 0 0 0  0 1 0 0 0  0 0 1 0 0  0 0 0 1 0"/>
						</filter>
					</defs>
					<mask maskUnits="userSpaceOnUse" x="65.2" y="0.1" width="8.1" height="6.8" id="mask-4_4_">
						<g class="st9">
							<polygon id="path-3_4_" class="st1" points="0.1,0.1 94.9,0.1 94.9,7 0.1,7 							"/>
						</g>
					</mask>
					<path id="Fill-33" class="st10" d="M70.4,2.7l-1.9-0.1c-1.2-0.1-1.2-0.3-1.2-0.4c0-0.4,0.7-0.6,1.9-0.6c1.5,0,2.2,0.3,2.8,0.6
						l0.3,0.2l0.8-1.4l-0.3-0.2c-0.9-0.5-2-0.7-3.6-0.7c-2.3,0-3.6,0.8-3.6,2.2c0,1.7,2,1.9,2.8,1.9l1.9,0.1
						c1.4,0.1,1.4,0.3,1.4,0.5c0,0.4-0.8,0.7-2.1,0.7c-1.6,0-2.5-0.4-3-0.7l-0.3-0.2l-0.9,1.3L65.6,6c1,0.6,2.2,0.9,3.9,0.9
						c2.4,0,3.8-0.8,3.8-2.3C73.3,2.8,71.3,2.7,70.4,2.7"/>
					<defs>
						<filter id="Adobe_OpacityMaskFilter_5_" filterUnits="userSpaceOnUse" x="86.9" y="0.1" width="8.1" height="6.8">
							<feColorMatrix  type="matrix" values="1 0 0 0 0  0 1 0 0 0  0 0 1 0 0  0 0 0 1 0"/>
						</filter>
					</defs>
					<mask maskUnits="userSpaceOnUse" x="86.9" y="0.1" width="8.1" height="6.8" id="mask-4_5_">
						<g class="st11">
							<polygon id="path-3_5_" class="st1" points="0.1,0.1 94.9,0.1 94.9,7 0.1,7 							"/>
						</g>
					</mask>
					<path id="Fill-34" class="st12" d="M92,2.7l-1.9-0.1c-1.2-0.1-1.2-0.3-1.2-0.4c0-0.4,0.7-0.6,1.9-0.6c1.5,0,2.2,0.3,2.8,0.6
						L94,2.4l0.8-1.4l-0.3-0.2c-0.9-0.5-2-0.7-3.6-0.7c-2.3,0-3.6,0.8-3.6,2.2c0,1.7,2,1.9,2.8,1.9l1.9,0.1c1.4,0.1,1.4,0.3,1.4,0.5
						c0,0.4-0.8,0.7-2.1,0.7c-1.6,0-2.5-0.4-3-0.7l-0.3-0.2l-0.9,1.3L87.2,6c1,0.6,2.2,0.9,3.9,0.9c2.4,0,3.8-0.8,3.8-2.3
						C94.9,2.8,93,2.7,92,2.7"/>
				</g>
				<path id="Fill-36" class="st1" d="M168.9,12.3h0.3c0.3,0,0.5-0.1,0.5-0.3c0-0.2-0.2-0.3-0.5-0.3c-0.1,0-0.2,0-0.3,0V12.3z
					 M168.9,13.5h-0.5v-2.3c0.2,0,0.5-0.1,0.9-0.1c0.4,0,0.6,0.1,0.8,0.2c0.1,0.1,0.2,0.3,0.2,0.5c0,0.3-0.2,0.5-0.5,0.5v0
					c0.2,0.1,0.3,0.2,0.4,0.6c0.1,0.3,0.1,0.5,0.2,0.6h-0.6c-0.1-0.1-0.1-0.3-0.2-0.5c0-0.2-0.2-0.4-0.5-0.4h-0.2V13.5z M169.2,10.5
					c-1,0-1.8,0.8-1.8,1.8c0,1,0.8,1.8,1.8,1.8c1,0,1.7-0.8,1.7-1.8C171,11.4,170.3,10.5,169.2,10.5L169.2,10.5z M169.3,10.1
					c1.3,0,2.3,1,2.3,2.3c0,1.3-1,2.3-2.3,2.3c-1.3,0-2.3-1-2.3-2.3C166.9,11.1,167.9,10.1,169.3,10.1L169.3,10.1z"/>
			</g>
		</g>
	</g>
</g>
</svg>
